<svg xmlns="http://www.w3.org/2000/svg" viewBox="0 0 922.91 874.71"><defs><style>.cls-1{fill:#178fcc;fill-rule:evenodd;}</style></defs><g id="Layer_2" data-name="Layer 2"><g id="Layer_1-2" data-name="Layer 1"><path class="cls-1" d="M404.06,638.4a28.73,28.73,0,1,0-28.73-28.73A28.72,28.72,0,0,0,404.06,638.4Z"/><path class="cls-1" d="M227.66,697.18A349.18,349.18,0,0,1,111.35,436.61c0-149.39,93.58-276.91,225.32-327.17V2.19a281.56,281.56,0,0,0-209,138.59L37.72,296.57a281.59,281.59,0,0,0,0,281.56l90,155.8a281.34,281.34,0,0,0,100,101.22Z"/><path class="cls-1" d="M492.83,87.93v353a62.5,62.5,0,1,0,35.29,0v-348a347.54,347.54,0,0,1,62.79,18.38V2.81A281.38,281.38,0,0,0,551.4,0H492.83Zm46.37,413a28.73,28.73,0,1,1-28.73-28.73A28.73,28.73,0,0,1,539.2,500.89Z"/><path class="cls-1" d="M210.38,342.24a20.84,20.84,0,1,0,20.84-20.84A20.85,20.85,0,0,0,210.38,342.24Z"/><path class="cls-1" d="M389.6,392.07a62.53,62.53,0,0,0,17.65-122.51V90.69a352.92,352.92,0,0,1,50.29-4.16V0H372V269.56A62.53,62.53,0,0,0,389.6,392.07Zm0-91.25a28.73,28.73,0,1,1-28.73,28.73A28.73,28.73,0,0,1,389.6,300.82Z"/><path class="cls-1" d="M885.19,296.57l-90-155.79a281.57,281.57,0,0,0-169-130.65V232.51a62.52,62.52,0,1,0,35.29,0V149.28c90.71,63.25,150.07,168.36,150.07,287.33A349.11,349.11,0,0,1,703.17,689.88V555.19a62.52,62.52,0,1,0-35.29,0v294.3A281.5,281.5,0,0,0,795.24,733.93l90-155.8A281.59,281.59,0,0,0,885.19,296.57ZM672.57,292.5a28.73,28.73,0,1,1-28.73-28.73A28.72,28.72,0,0,1,672.57,292.5ZM656.8,495.2a28.73,28.73,0,1,1,28.73,28.72A28.73,28.73,0,0,1,656.8,495.2Z"/><path class="cls-1" d="M541.34,694.28A14.37,14.37,0,1,0,527,708.65,14.37,14.37,0,0,0,541.34,694.28Z"/><path class="cls-1" d="M632.59,742.08a350.39,350.39,0,0,1-334.35,4.31V566.82a62.53,62.53,0,1,0-35.29,0V852.93a281.29,281.29,0,0,0,108.56,21.78H551.4a281.54,281.54,0,0,0,81.19-12ZM251.86,506.83a28.73,28.73,0,1,1,28.73,28.73A28.73,28.73,0,0,1,251.86,506.83Z"/></g></g></svg>