<svg xmlns="http://www.w3.org/2000/svg" viewBox="0 0 611.99 109.71"><defs><style>.cls-1{fill:#fff;}.cls-2{fill:#178fcc;fill-rule:evenodd;}</style></defs><g id="Layer_2" data-name="Layer 2"><g id="Layer_1-2" data-name="Layer 1"><path class="cls-1" d="M157.24,92.25V39.12h7.9v8.41h.51q3.06-9.24,14.31-9.25a18.54,18.54,0,0,1,5.47.77,14,14,0,0,1,7.46,5.25,11.72,11.72,0,0,1,1.85,3.93h.42A16,16,0,0,1,201,41.07a17.72,17.72,0,0,1,10.25-2.79q8.33,0,13,4.3t4.65,12.25V92.25H221V56.73a11.76,11.76,0,0,0-3-8.36q-3-3.16-8.53-3.16a11.82,11.82,0,0,0-8.88,3.65A12.61,12.61,0,0,0,197.07,58V92.25h-7.9v-35a12.06,12.06,0,0,0-3.21-8.7,12.62,12.62,0,0,0-17.38.26,12.6,12.6,0,0,0-3.44,9.09V92.25Z"/><path class="cls-1" d="M267.25,38.28q9.94,0,16.22,6.18t6.28,17v8.41q0,10.83-6.32,17t-16.18,6.21q-10.08,0-16.31-6.16t-6.23-17.08V61.48q0-10.47,6.37-16.83A21.91,21.91,0,0,1,267.25,38.28ZM252.61,62.36V69a21.66,21.66,0,0,0,1.74,9.06,13.42,13.42,0,0,0,5,5.9,14.31,14.31,0,0,0,7.85,2.09q6.84,0,10.67-4.6T281.75,69V62.36c0-5.18-1.31-9.3-3.92-12.39a13.15,13.15,0,0,0-10.55-4.62A13.34,13.34,0,0,0,256.63,50Q252.61,54.69,252.61,62.36Z"/><path class="cls-1" d="M323.91,38.28A18.52,18.52,0,0,1,334,40.79a13.15,13.15,0,0,1,5.37,6.09h.37V19.5h7.95V92.25h-7.53V83.83h-.42q-1,3.58-5.3,6.39A19.29,19.29,0,0,1,323.63,93q-9.19,0-14.85-6t-5.65-16v-11q0-9.77,5.65-15.81T323.91,38.28ZM325,45.35a12.62,12.62,0,0,0-10.2,4.44Q311,54.23,311,62.17v7c0,5.32,1.27,9.48,3.83,12.45a13,13,0,0,0,10.41,4.46,13.59,13.59,0,0,0,10.53-4.3q3.94-4.29,3.95-11.69V60.13a14.45,14.45,0,0,0-4.16-10.58A14.3,14.3,0,0,0,325,45.35Z"/><path class="cls-1" d="M386,93.13q-10.41,0-16.32-6.25T363.79,70v-8.6q0-10.46,6-16.78t15.57-6.32q9.53,0,15.57,6.32t6,16.78v6.51H371.78v2.7a16.43,16.43,0,0,0,3.75,11.1q3.74,4.38,10.48,4.37a14.85,14.85,0,0,0,7.78-1.88,8.57,8.57,0,0,0,4-4.53h8.42a12.24,12.24,0,0,1-1.77,4.46,19.79,19.79,0,0,1-3.77,4.32,17.91,17.91,0,0,1-6.2,3.4A26.51,26.51,0,0,1,386,93.13ZM371.78,61.75H399v-.92a18.76,18.76,0,0,0-1.7-8.19,12.47,12.47,0,0,0-4.79-5.41,13.48,13.48,0,0,0-7.13-1.88,12.53,12.53,0,0,0-9.83,4.2q-3.75,4.22-3.75,11.28Z"/><path class="cls-1" d="M422.87,92.25V19.5h8V92.25Z"/><path class="cls-1" d="M467.86,38.28A18.52,18.52,0,0,1,478,40.79a13.26,13.26,0,0,1,5.37,6.09h.37V19.5h7.94V92.25h-7.52V83.83h-.42c-.69,2.39-2.45,4.52-5.3,6.39A19.29,19.29,0,0,1,467.58,93q-9.21,0-14.85-6t-5.65-16v-11q0-9.77,5.65-15.81T467.86,38.28Zm1.07,7.07a12.66,12.66,0,0,0-10.21,4.44Q455,54.23,455,62.17v7c0,5.32,1.28,9.48,3.84,12.45a13,13,0,0,0,10.41,4.46,13.62,13.62,0,0,0,10.53-4.3q3.94-4.29,3.95-11.69V60.13a14.3,14.3,0,0,0-14.78-14.78Z"/><path class="cls-1" d="M509.18,86.34a6.7,6.7,0,0,1,2-4.88,6.52,6.52,0,0,1,4.81-2,6.71,6.71,0,0,1,4.95,2,6.62,6.62,0,0,1,2,4.92,6.55,6.55,0,0,1-2,4.84A6.74,6.74,0,0,1,516,93.13a6.69,6.69,0,0,1-6.78-6.79Z"/><path class="cls-1" d="M539.62,22.57a5.76,5.76,0,0,1,1.74-4.3,6,6,0,0,1,10.25,4.3,6.22,6.22,0,0,1-.76,3.12,5.17,5.17,0,0,1-2.16,2.06,6.5,6.5,0,0,1-3.07.73,5.92,5.92,0,0,1-4.26-1.68A5.6,5.6,0,0,1,539.62,22.57Zm2,69.68V39.12h7.94V92.25Z"/><path class="cls-1" d="M589.49,38.28q9.94,0,16.23,6.18t6.27,17v8.41q0,10.83-6.32,17t-16.18,6.21q-10.08,0-16.31-6.16T567,69.89V61.48q0-10.47,6.37-16.83A21.93,21.93,0,0,1,589.49,38.28ZM574.85,62.36V69a21.5,21.5,0,0,0,1.75,9.06,13.34,13.34,0,0,0,5,5.9,14.31,14.31,0,0,0,7.85,2.09q6.84,0,10.67-4.6T604,69V62.36c0-5.18-1.31-9.3-3.93-12.39a13.15,13.15,0,0,0-10.55-4.62A13.34,13.34,0,0,0,578.87,50Q574.85,54.69,574.85,62.36Z"/><path class="cls-2" d="M50.68,80.07a3.61,3.61,0,1,0-3.61-3.61A3.61,3.61,0,0,0,50.68,80.07Z"/><path class="cls-2" d="M28.55,87.44A43.92,43.92,0,0,1,42.22,13.73V.27A35.33,35.33,0,0,0,16,17.66L4.73,37.2a35.3,35.3,0,0,0,0,35.31L16,92.05a35.32,35.32,0,0,0,12.54,12.69Z"/><path class="cls-2" d="M61.81,11V55.3a7.84,7.84,0,1,0,4.43,0V11.65A43.45,43.45,0,0,1,74.11,14V.35a35.39,35.39,0,0,0-5-.35H61.81Zm5.82,51.79A3.61,3.61,0,1,1,64,59.22,3.61,3.61,0,0,1,67.63,62.82Z"/><path class="cls-2" d="M26.39,42.92A2.61,2.61,0,1,0,29,40.31,2.61,2.61,0,0,0,26.39,42.92Z"/><path class="cls-2" d="M48.86,49.17a7.84,7.84,0,0,0,2.22-15.36V11.37a45.12,45.12,0,0,1,6.3-.52V0H46.65V33.81a7.84,7.84,0,0,0,2.21,15.36Zm0-11.44a3.61,3.61,0,1,1-3.6,3.6A3.61,3.61,0,0,1,48.86,37.73Z"/><path class="cls-2" d="M111,37.2,99.74,17.66A35.29,35.29,0,0,0,78.54,1.27V29.16a7.84,7.84,0,1,0,4.42,0V18.72a43.91,43.91,0,0,1,5.23,67.8V69.63a7.84,7.84,0,1,0-4.42,0v36.91a35.34,35.34,0,0,0,16-14.49L111,72.51A35.3,35.3,0,0,0,111,37.2Zm-26.67-.52a3.6,3.6,0,1,1-3.6-3.6A3.61,3.61,0,0,1,84.35,36.68Zm-2,25.43A3.61,3.61,0,1,1,86,65.71,3.61,3.61,0,0,1,82.37,62.11Z"/><path class="cls-2" d="M67.89,87.08a1.8,1.8,0,1,0-1.8,1.8A1.8,1.8,0,0,0,67.89,87.08Z"/><path class="cls-2" d="M79.34,93.07a43.95,43.95,0,0,1-41.94.54V71.09a7.84,7.84,0,1,0-4.42,0V107a35.15,35.15,0,0,0,13.61,2.74H69.16a35,35,0,0,0,10.18-1.51ZM31.59,63.57a3.61,3.61,0,1,1,3.6,3.6A3.61,3.61,0,0,1,31.59,63.57Z"/></g></g></svg>