<svg xmlns="http://www.w3.org/2000/svg" viewBox="0 0 454.75 312.13"><defs><style>.cls-1{fill:#191919;}.cls-2{fill:#178fcc;fill-rule:evenodd;}</style></defs><g id="Layer_2" data-name="Layer 2"><g id="Layer_1-2" data-name="Layer 1"><path class="cls-1" d="M0,311.25V258.12H7.9v8.41h.51q3.08-9.24,14.32-9.24a18.53,18.53,0,0,1,5.46.76,14.18,14.18,0,0,1,7.46,5.25,11.64,11.64,0,0,1,1.86,3.93h.42a16,16,0,0,1,5.88-7.16,17.77,17.77,0,0,1,10.25-2.78q8.31,0,13,4.29t4.65,12.25v37.42h-8V275.74a11.77,11.77,0,0,0-2.95-8.37q-3-3.17-8.53-3.16a11.83,11.83,0,0,0-8.87,3.65A12.59,12.59,0,0,0,39.83,277v34.26h-7.9v-35a12,12,0,0,0-3.21-8.69A11.46,11.46,0,0,0,20,264.21a11.5,11.5,0,0,0-8.69,3.6A12.64,12.64,0,0,0,7.9,276.9v34.35Z"/><path class="cls-1" d="M110,257.29q9.95,0,16.22,6.18t6.27,17v8.41q0,10.83-6.32,17T110,312.13q-10.09,0-16.32-6.16t-6.23-17.08v-8.41q0-10.46,6.37-16.83T110,257.29ZM95.38,281.36V288a21.66,21.66,0,0,0,1.74,9.06,13.34,13.34,0,0,0,5,5.9,14.33,14.33,0,0,0,7.86,2.1q6.83,0,10.66-4.61c2.56-3.06,3.84-7.22,3.84-12.45v-6.65q0-7.75-3.93-12.39A13.13,13.13,0,0,0,110,264.35,13.35,13.35,0,0,0,99.4,269Q95.38,273.7,95.38,281.36Z"/><path class="cls-1" d="M166.67,257.29a18.39,18.39,0,0,1,10.11,2.51,13.08,13.08,0,0,1,5.37,6.08h.37V238.51h7.95v72.74h-7.53v-8.41h-.42q-1,3.57-5.29,6.39A19.37,19.37,0,0,1,166.4,312q-9.21,0-14.85-6t-5.65-15.94v-11q0-9.76,5.65-15.8T166.67,257.29Zm1.07,7.06a12.65,12.65,0,0,0-10.2,4.44q-3.73,4.44-3.74,12.39v7q0,8,3.83,12.45a13,13,0,0,0,10.42,4.47,13.61,13.61,0,0,0,10.52-4.3q4-4.31,4-11.69v-9.95a14.3,14.3,0,0,0-14.78-14.78Z"/><path class="cls-1" d="M228.77,312.13q-10.41,0-16.31-6.25T206.55,289v-8.59q0-10.47,6-16.78t15.57-6.32q9.53,0,15.57,6.32t6,16.78v6.5H214.55v2.7a16.52,16.52,0,0,0,3.74,11.11q3.74,4.37,10.48,4.37a14.89,14.89,0,0,0,7.79-1.89,8.57,8.57,0,0,0,4-4.53H249a12.17,12.17,0,0,1-1.77,4.46,20,20,0,0,1-3.76,4.33,18.12,18.12,0,0,1-6.21,3.39A26.15,26.15,0,0,1,228.77,312.13Zm-14.22-31.37h27.19v-.93a18.68,18.68,0,0,0-1.7-8.18,12.44,12.44,0,0,0-4.79-5.42,13.46,13.46,0,0,0-7.13-1.88,12.5,12.5,0,0,0-9.83,4.21q-3.73,4.2-3.74,11.27Z"/><path class="cls-1" d="M265.63,311.25V238.51h8v72.74Z"/><path class="cls-1" d="M310.62,257.29a18.43,18.43,0,0,1,10.11,2.51,13.08,13.08,0,0,1,5.37,6.08h.37V238.51h7.95v72.74h-7.53v-8.41h-.42q-1,3.57-5.3,6.39A19.37,19.37,0,0,1,310.34,312q-9.19,0-14.85-6t-5.64-15.94v-11q0-9.76,5.64-15.8T310.62,257.29Zm1.07,7.06a12.62,12.62,0,0,0-10.2,4.44q-3.75,4.44-3.74,12.39v7q0,8,3.83,12.45A13,13,0,0,0,312,305.07a13.62,13.62,0,0,0,10.53-4.3q3.94-4.31,4-11.69v-9.95a14.43,14.43,0,0,0-4.16-10.57A14.27,14.27,0,0,0,311.69,264.35Z"/><path class="cls-1" d="M351.94,305.34a6.68,6.68,0,0,1,2-4.88,6.5,6.5,0,0,1,4.81-2,6.77,6.77,0,0,1,4.95,1.95,6.65,6.65,0,0,1,2,4.92,6.54,6.54,0,0,1-2,4.84,6.77,6.77,0,0,1-4.95,1.95,6.71,6.71,0,0,1-6.79-6.79Z"/><path class="cls-1" d="M382.39,241.58a5.74,5.74,0,0,1,1.74-4.3,6,6,0,0,1,10.25,4.3,6.21,6.21,0,0,1-.77,3.11,5.14,5.14,0,0,1-2.16,2.07,6.58,6.58,0,0,1-3.07.72,5.89,5.89,0,0,1-4.25-1.68A5.6,5.6,0,0,1,382.39,241.58Zm2,69.67V258.12h7.95v53.13Z"/><path class="cls-1" d="M432.26,257.29q9.94,0,16.22,6.18t6.27,17v8.41q0,10.83-6.32,17t-16.17,6.2q-10.1,0-16.32-6.16t-6.22-17.08v-8.41q0-10.46,6.36-16.83T432.26,257.29Zm-14.64,24.07V288a21.66,21.66,0,0,0,1.74,9.06,13.34,13.34,0,0,0,5,5.9,14.33,14.33,0,0,0,7.86,2.1q6.83,0,10.66-4.61c2.56-3.06,3.84-7.22,3.84-12.45v-6.65q0-7.75-3.93-12.39a13.13,13.13,0,0,0-10.55-4.62A13.36,13.36,0,0,0,421.64,269Q417.62,273.7,417.62,281.36Z"/><path class="cls-2" d="M214.86,139.22a6.27,6.27,0,1,0-6.27-6.26A6.26,6.26,0,0,0,214.86,139.22Z"/><path class="cls-2" d="M176.39,152A76.36,76.36,0,0,1,200.16,23.87V.48A61.37,61.37,0,0,0,154.59,30.7L135,64.68a61.39,61.39,0,0,0,0,61.4l19.62,34a61.26,61.26,0,0,0,21.8,22.07Z"/><path class="cls-2" d="M234.22,19.18v77a13.64,13.64,0,1,0,7.69,0V20.25a76.64,76.64,0,0,1,13.7,4V.61A61.59,61.59,0,0,0,247,0H234.22Zm10.11,90.05a6.27,6.27,0,1,1-6.26-6.26A6.27,6.27,0,0,1,244.33,109.23Z"/><path class="cls-2" d="M172.62,74.64a4.55,4.55,0,1,0,4.55-4.55A4.55,4.55,0,0,0,172.62,74.64Z"/><path class="cls-2" d="M211.71,85.5a13.63,13.63,0,0,0,3.85-26.71v-39a76.07,76.07,0,0,1,11-.91V0H207.86V58.79a13.63,13.63,0,0,0,3.85,26.71Zm0-19.9a6.27,6.27,0,1,1-6.27,6.27A6.27,6.27,0,0,1,211.71,65.6Z"/><path class="cls-2" d="M319.79,64.68l-19.62-34A61.41,61.41,0,0,0,263.3,2.21v48.5a13.64,13.64,0,1,0,7.7,0V32.55a76.35,76.35,0,0,1,9.09,117.9V121.08a13.63,13.63,0,1,0-7.7,0v64.18a61.43,61.43,0,0,0,27.78-25.2l19.62-34A61.44,61.44,0,0,0,319.79,64.68Zm-46.37-.89a6.27,6.27,0,1,1-6.27-6.27A6.27,6.27,0,0,1,273.42,63.79ZM270,108a6.27,6.27,0,1,1,6.26,6.27A6.26,6.26,0,0,1,270,108Z"/><path class="cls-2" d="M244.8,151.41a3.14,3.14,0,1,0-3.13,3.13A3.13,3.13,0,0,0,244.8,151.41Z"/><path class="cls-2" d="M264.7,161.83a76.39,76.39,0,0,1-72.92.94V123.61a13.64,13.64,0,1,0-7.69,0V186a61.44,61.44,0,0,0,23.67,4.75H247a61.61,61.61,0,0,0,17.71-2.61Zm-83-51.3a6.27,6.27,0,1,1,6.26,6.26A6.27,6.27,0,0,1,181.67,110.53Z"/></g></g></svg>